<svg xmlns="http://www.w3.org/2000/svg" viewBox="0 0 283.43 40.83"><defs><style>.cls-1{fill:#fff;}</style></defs><g id="Ebene_2" data-name="Ebene 2"><g id="Layer_1" data-name="Layer 1"><polyline class="cls-1" points="50.87 19.81 57.55 29.6 57.18 30.55 42.41 30.55 38.64 35.19 60.63 35.19 62.15 36.12 65.56 40.82 74.45 40.82 54.98 14.78"/><polyline class="cls-1" points="139.21 35.76 139.21 28.83 140.01 28.14 154.87 28.14 154.87 23.73 131.31 23.73 131.31 40.82 166.06 40.82 166.06 36.44 140.04 36.44"/><rect class="cls-1" x="131.31" y="15.09" width="35.11" height="4.85"/><path class="cls-1" d="M92.15,19.68h28.29c-.44-3.59-2.67-4.59-8.33-4.59H91.85c-6.39,0-8.43,1.25-8.43,6.08V34.74c0,4.84,2,6.08,8.43,6.08h20.26c5.74,0,7.94-1.08,8.09-4.81h-28l-.83-.78v-15"/><path class="cls-1" d="M188.52,15H177l-.62,1.19,12.83,9.35c2.43-1.41,5.07-2.83,8-4.24Z"/><path class="cls-1" d="M198.86,32.6l11.28,8.23h11.69l.49-1.09L205.48,27.41c-2.24,1.64-4.45,3.38-6.62,5.19"/><path class="cls-1" d="M186.8,40.81H176.34l-.88-1.39c7.11-6.86,38.89-36.27,108-39.42,0,0-58,2-96.63,40.81"/><path class="cls-1" d="M1.08,15.05H34v4.49H8.47l-.66.61v5.46l.78.75H22V30.8H8.49l-.68.63v9.39H0v-25Z"/></g></g></svg>