<svg xmlns="http://www.w3.org/2000/svg" viewBox="0 0 216.59 77.01"><defs><style>.cls-1{fill:#fff;}</style></defs><g id="Layer_2" data-name="Layer 2"><g id="Ebene_1" data-name="Ebene 1"><path class="cls-1" d="M160.28,23.66a10.09,10.09,0,1,0,10.09-10.09,10.09,10.09,0,0,0-10.09,10.09"/><path class="cls-1" d="M216.59,50.31a53.35,53.35,0,0,1-92.37.12L133,45.36a43.27,43.27,0,0,0,74.9-.09Z"/><path class="cls-1" d="M208,13.61a39,39,0,0,1-37.62,49,38.79,38.79,0,0,1-27.53-11.41L150,44a28.84,28.84,0,0,0,48.25-27.83Z"/><path class="cls-1" d="M176.77,0A24.51,24.51,0,0,1,164,47.34l2.61-9.75a14.64,14.64,0,0,0,3.72.48,14.42,14.42,0,0,0,3.77-28.33Z"/><path class="cls-1" d="M0,15.45V7.12H1.08v3.6H4V7.12H5.06v8.33H4V11.64H1.08v3.81Z"/><path class="cls-1" d="M7.72,12.4V9.67A2.41,2.41,0,0,1,10.33,7,2.41,2.41,0,0,1,13,9.67V12.4c0,2.31-.85,3.22-2.62,3.22S7.72,14.71,7.72,12.4Zm4.15,0V9.64c0-1.75-1.2-1.8-1.54-1.8s-1.53,0-1.53,1.8v2.81c0,1.82.53,2.28,1.53,2.28S11.87,14.27,11.87,12.45Z"/><path class="cls-1" d="M19.21,9.42A1.86,1.86,0,0,0,19,8.21,1.36,1.36,0,0,0,18,7.85a1.32,1.32,0,0,0-1.26.64c0,.1-.24.3-.24,1.73v2.23c0,2,.67,2.28,1.49,2.28.32,0,1.3-.11,1.31-1.74h1.1c0,2.63-1.81,2.63-2.36,2.63-1,0-2.63-.07-2.63-3.3V10c0-2.35,1-3,2.68-3s2.28.85,2.18,2.47Z"/><path class="cls-1" d="M22.78,15.45V7.12h1.06v3.6h2.92V7.12h1.06v8.33H26.76V11.64H23.84v3.81Z"/><path class="cls-1" d="M31.3,13v.24a1.32,1.32,0,0,0,1.4,1.49c.84,0,1.49-.36,1.49-1.35,0-1.85-3.74-1.64-3.74-4.14A2.2,2.2,0,0,1,32.89,7,2,2,0,0,1,35.2,9.38H34.09c0-.91-.27-1.51-1.28-1.51a1.16,1.16,0,0,0-1.28,1.22c0,1.84,3.74,1.57,3.74,4.21,0,1.76-1.21,2.32-2.58,2.32-2.46,0-2.46-1.86-2.44-2.65Z"/><path class="cls-1" d="M41.32,9.42a1.86,1.86,0,0,0-.24-1.21,1.36,1.36,0,0,0-.93-.36,1.3,1.3,0,0,0-1.26.64c0,.1-.24.3-.24,1.73v2.23c0,2,.67,2.28,1.49,2.28.32,0,1.3-.11,1.31-1.74h1.1c0,2.63-1.81,2.63-2.36,2.63-1,0-2.63-.07-2.63-3.3V10c0-2.35,1-3,2.68-3s2.28.85,2.18,2.47Z"/><path class="cls-1" d="M44.89,15.45V7.12H46v3.6h2.92V7.12h1.06v8.33H48.87V11.64H46v3.81Z"/><path class="cls-1" d="M52.59,7.12h1.06v5.33c0,1.82.56,2.28,1.56,2.28s1.56-.46,1.56-2.28V7.12h1.06V12.4c0,2.31-.86,3.22-2.62,3.22s-2.62-.91-2.62-3.22Z"/><path class="cls-1" d="M60.44,15.45V7.12h1.07v7.41h3.05v.92Z"/><path class="cls-1" d="M66.36,15.45V7.12h4.29V8H67.42v2.68h3v.92h-3v2.89h3.3v.92Z"/><path class="cls-1" d="M0,27V18.65H4.13v.93H1.06v2.67H4v.93H1.06V27Z"/><path class="cls-1" d="M5.51,18.65H6.57V24c0,1.83.56,2.29,1.56,2.29S9.69,25.81,9.69,24V18.65h1.06v5.29c0,2.3-.85,3.22-2.62,3.22s-2.62-.92-2.62-3.22Z"/><path class="cls-1" d="M14,23.15V27H12.91V18.65h2.87a1.88,1.88,0,0,1,2,2.08,1.79,1.79,0,0,1-1.52,1.9v0c1,.15,1.3.47,1.36,2.14A12.61,12.61,0,0,0,17.9,27H16.79a9.45,9.45,0,0,1-.32-2.77,1.1,1.1,0,0,0-1.26-1.06Zm0-.92h1.59c.76,0,1.13-.66,1.13-1.38a1.13,1.13,0,0,0-1.12-1.27H14Z"/><path class="cls-1" d="M24.36,18.65v.93H22.17V27H21.11v-7.4h-2.2v-.93Z"/><path class="cls-1" d="M24.92,18.65h1.13l1.57,7.22h0l1.68-7.22h1.37l1.51,7.22h0l1.7-7.22H35L32.82,27H31.53L30,19.76h0L28.25,27H27Z"/><path class="cls-1" d="M37.85,18.65H39.2L41.91,27H40.72l-.6-2H36.91l-.63,2H35.21Zm.65,1h0l-1.3,4.45h2.67Z"/><path class="cls-1" d="M49.13,18.65V27H47.68l-3.29-7.22h0V27h-.95V18.65h1.5l3.24,7.13h0V18.65Z"/><path class="cls-1" d="M55.39,20.88c0-1-.4-1.51-1.47-1.51-.34,0-1.54.06-1.54,1.8V24c0,1.83.53,2.29,1.54,2.29a2.66,2.66,0,0,0,1.49-.37V23.41H53.87v-.93h2.6v4.05a5.13,5.13,0,0,1-2.55.63c-1.77,0-2.62-.92-2.62-3.22V21.2a2.41,2.41,0,0,1,2.62-2.72c1.8,0,2.65.66,2.58,2.4Z"/><path class="cls-1" d="M58.78,27V18.65h4.3v.93H59.85v2.67h3v.93h-3v2.88h3.29V27Z"/><path class="cls-1" d="M70.66,18.65V27H69.21l-3.29-7.22h0V27H65V18.65h1.5l3.25,7.13h0V18.65Z"/><path class="cls-1" d="M11.78,30.19h1.06v5.33c0,1.82.55,2.28,1.55,2.28S16,37.34,16,35.52V30.19H17v5.28c0,2.31-.85,3.22-2.62,3.22s-2.61-.91-2.61-3.22Z"/><path class="cls-1" d="M25,30.19v8.33H23.52l-3.29-7.23h0v7.23h-.95V30.19h1.5L24,37.32h0V30.19Z"/><path class="cls-1" d="M28.44,38.52H27.38V30.19h1.06Z"/><path class="cls-1" d="M33.69,38.52H32.42L30,30.19h1.15l1.91,7.32h0L35,30.19h1.08Z"/><path class="cls-1" d="M37.54,38.52V30.19h4.29v.92H38.6v2.68h3v.92h-3v2.88h3.3v.93Z"/><path class="cls-1" d="M44.68,34.69v3.83H43.62V30.19h2.87a1.88,1.88,0,0,1,2,2.07A1.82,1.82,0,0,1,47,34.17v0c1,.15,1.31.47,1.36,2.14a13.78,13.78,0,0,0,.29,2.19h-1.1a9.49,9.49,0,0,1-.33-2.77,1.1,1.1,0,0,0-1.26-1.06Zm0-.93h1.59c.76,0,1.13-.65,1.13-1.38a1.13,1.13,0,0,0-1.12-1.27h-1.6Z"/><path class="cls-1" d="M51.21,36v.24a1.32,1.32,0,0,0,1.39,1.49c.85,0,1.49-.36,1.49-1.35,0-1.85-3.74-1.64-3.74-4.15A2.21,2.21,0,0,1,52.8,30a2.05,2.05,0,0,1,2.31,2.44H54c0-.91-.28-1.51-1.28-1.51a1.16,1.16,0,0,0-1.28,1.22c0,1.83,3.74,1.57,3.74,4.21,0,1.75-1.22,2.32-2.59,2.32-2.46,0-2.46-1.86-2.43-2.65Z"/><path class="cls-1" d="M58.36,38.52H57.3V30.19h1.06Z"/><path class="cls-1" d="M65.37,30.19v.92H63.18v7.41H62.12V31.11H59.93v-.92Z"/><path class="cls-1" d="M70.46,30.19h1.07l-2.27,5.15v3.18H68.2V35.34L66,30.19h1.19l1.62,4Z"/><polygon class="cls-1" points="83.8 38.85 83.8 6.57 87.91 6.57 87.91 20.52 99.22 20.52 99.22 6.57 103.33 6.57 103.33 38.85 99.22 38.85 99.22 24.09 87.91 24.09 87.91 38.85 83.8 38.85"/><polygon class="cls-1" points="109 38.85 109 6.57 125.01 6.57 125.01 10.14 113.12 10.14 113.12 20.52 124.39 20.52 124.39 24.09 113.12 24.09 113.12 38.85 109 38.85"/><path class="cls-1" d="M128.43,6.57h4.11V27.22c0,7.07,2.15,8.86,6,8.86s6-1.79,6-8.86V6.57h4.11V27c0,9-3.31,12.48-10.15,12.48S128.43,36,128.43,27Z"/><rect class="cls-1" x="76.68" y="6.53" width="0.52" height="32.35"/></g></g></svg>